<svg xmlns="http://www.w3.org/2000/svg" version="1.1" xmlns:xlink="http://www.w3.org/1999/xlink" xmlns:svgjs="http://svgjs.dev/svgjs" width="200" height="200" viewBox="0 0 1500 1500"><rect width="1500" height="1500" fill="#4d749f"></rect><g transform="matrix(0.6666666666666666,0,0,0.6666666666666666,251.34479344230778,546.2929842767296)"><svg viewBox="0 0 130 53" data-background-color="#4d749f" preserveAspectRatio="xMidYMid meet" height="611" width="1500" xmlns="http://www.w3.org/2000/svg" xmlns:xlink="http://www.w3.org/1999/xlink"><g id="tight-bounds" transform="matrix(1,0,0,1,-0.17482314750000683,0.005249999999989541)"><svg viewBox="0 0 130.349646295 52.9895" height="52.9895" width="130.349646295"><g><svg viewBox="0 0 130.349646295 52.9895" height="52.9895" width="130.349646295"><g><svg viewBox="0 0 130.349646295 52.9895" height="52.9895" width="130.349646295"><g id="textblocktransform"><svg viewBox="0 0 130.349646295 52.9895" height="52.9895" width="130.349646295" id="textblock"><g><svg viewBox="0 0 130.349646295 52.9895" height="52.9895" width="130.349646295"><g><svg><g></g><g></g></svg></g><g><svg><g></g><g><svg></svg></g></svg></g><g id="text-0"><svg viewBox="0 0 130.349646295 52.9895" height="52.9895" width="130.349646295"><g><svg version="1.0" xmlns="http://www.w3.org/2000/svg" xmlns:xlink="http://www.w3.org/1999/xlink" x="0" y="0" viewBox="0 0 90.321 100" enable-background="new 0 0 90.321 100" xml:space="preserve" width="47.860646295" height="52.9895" class="icon-cg-0" data-fill-palette-color="accent" id="cg-0"><path fill-rule="evenodd" clip-rule="evenodd" d="M77.6 83.44v-6.752H62.644v-3.862h25.388c0.911 0 1.65-0.747 1.65-1.667V1.669c0-0.922-0.739-1.669-1.65-1.669H1.97C1.059 0 0.32 0.747 0.32 1.669v69.49c0 0.92 0.739 1.667 1.65 1.667h25.693v3.862H12.72v6.752L0 92.602V100h90.321v-7.398L77.6 83.44zM6.36 66.249V6.041c0-0.795 0.636-1.44 1.417-1.44h74.127c0.781 0 1.417 0.646 1.417 1.44v60.208c0 0.796-0.636 1.438-1.417 1.438H7.777C6.996 67.688 6.36 67.045 6.36 66.249zM4.444 92.278l11.458-8.204h58.518l11.443 8.204H4.444z" fill="#ffffff" data-fill-palette-color="accent"></path></svg></g><g transform="matrix(1,0,0,1,60.371146295,0)"><svg width="69.9785" viewBox="4.3 -32.75 43.25 32.75" height="52.9895" data-palette-color="#ffffff"><path d="M7.05 0L4.3 0 4.3-32.75 21.4-32.75 21.4-30.2 7.05-30.2 7.05-15.9 19.35-15.9 19.35-13.4 7.05-13.4 7.05 0ZM30.1 0L27.4 0 27.4-32.75 30.05-32.75 37.1-14.4 37.85-14.4 44.9-32.75 47.55-32.75 47.55 0 44.85 0 44.85-25.4 44.65-25.4 39.4-11.85 35.55-11.85 30.3-25.45 30.1-25.45 30.1 0Z" opacity="1" transform="matrix(1,0,0,1,0,0)" fill="#ffffff" class="wordmark-text-0" data-fill-palette-color="primary"></path></svg></g></svg></g></svg></g></svg></g></svg></g></svg></g><defs></defs></svg><rect width="130.349646295" height="52.9895" fill="none" stroke="none" visibility="hidden"></rect></g></svg></g></svg>